<?xml version="1.0" encoding="UTF-8"?>
<svg id="_レイヤー_1" data-name="レイヤー 1" xmlns="http://www.w3.org/2000/svg" viewBox="0 0 202.76 25.26">
  <defs>
    <style>
      .cls-1 {
        fill: #fff;
      }
    </style>
  </defs>
  <path d="M65.34,15.37l4.1-14.85h3.31s3.98,14.86,3.98,14.86l3.98-14.86,3.1-.02-5.22,18.66c-.53,1.02-2.1.36-3.07.56l-4.67-14.66-3.81,14.5-3.36.12L58.37.5l3.24.23,3.72,14.64Z"/>
  <path d="M46.8.08c13.62-1.58,14.3,19.9,1.6,20.1S35.29,1.42,46.8.08ZM46.55,2.71c-6.33,1.06-6.55,13.6.24,14.77,10,1.72,10.38-16.55-.24-14.77Z"/>
  <path d="M202.61,19.82c-.05.46-.36,1.65-.53,2.11-1.72,4.63-11.99,4.57-12.43-1.03l2.73-.02c.73,2.76,5.69,2.97,6.84.59.59-1.23.53-2.61.5-3.93-5.89,5.68-12.39-.67-10.25-7.73,1.4-4.64,7.03-6.09,10.25-2.35v-1.68s2.88,0,2.88,0c-.34,4.48.46,9.64,0,14.04ZM195.11,7.75c-4.53.73-4.31,10.46,1.61,9.53,4.35-.69,4.3-10.48-1.61-9.53Z"/>
  <path d="M23.33.5v7.92h9.6V.5h2.88v19.2h-2.88v-8.52l-.36-.31c-.1,0-.18.19-.24.19h-9v8.64h-3.12V.5h3.12Z"/>
  <path d="M82.61,19.7L90.08.88c.43-.55,2.49-.49,3.23-.4,1.03.13,6.82,17.11,8.03,19.22h-3.36l-1.89-5.13-8.4-.12-1.71,5.25h-3.36ZM95.09,12.02l-3.24-8.4-3,8.4h6.24Z"/>
  <path d="M17.57,6.49l-2.89.14C12.86.84,5.07,1.47,3.48,7.17c-1.28,4.6.63,10.76,6.3,10.38,2.96-.2,4.31-2.38,4.94-5.02l2.85-.03c-.3,6.01-5.84,8.83-11.33,7.13C-.23,17.63-1.72,8.62,2.01,3.54,6.14-2.08,16.54-.89,17.57,6.49Z"/>
  <path d="M103.25,5.78h2.64s0,1.68,0,1.68c3.53-3.82,9.5-2.23,10.69,2.87,1.65,7.06-4.24,13.03-10.34,7.69-.73-.06-.12.26-.12.36v6.36h-2.88V5.78ZM109.19,7.75c-4.66.76-4.43,10.19,1.08,9.96s5-10.94-1.08-9.96Z"/>
  <path d="M136.39,17.52h1.43s-.03,2.15-.03,2.15c-1.54.45-3.76.57-4.06-1.41h-.35c-3.24,3.28-10.36,2.03-9.19-3.67.8-3.87,7.07-2.39,8.9-3.76,1.19-.88.15-2.88-1.41-3.12-2.13-.33-3.65.11-4.58,2.11l-2.49.03c.17-4.37,5.36-5.25,8.78-4.09,4.9,1.66,1.92,8.09,3,11.76ZM133.49,12.74c-1.69.65-6.14.29-6.47,2.54-.37,2.55,2.33,2.85,4.2,2.28,2.32-.71,2.35-2.71,2.26-4.81Z"/>
  <path d="M187.01,19.7h-2.88v-9.72c0-1.43-1.92-2.39-3.21-2.27-1.41.13-3.27,1.83-3.27,3.23v8.76h-2.88V5.78h2.88s-.12,1.68-.12,1.68c.68-.17,1.02-.93,1.57-1.31,1.98-1.32,5.71-1.02,7.05,1.08.2.31.85,2.02.85,2.27v10.2Z"/>
  <path d="M148.61,19.7v-9.72c0-1.32-1.76-2.33-2.99-2.29s-3.49,1.39-3.49,2.77v9.24h-2.88V5.78h2.64s0,1.92,0,1.92c1.73-2.5,5.44-3.2,7.9-1.31,2.79,2.15,1.32,9.48,1.69,12.71l-.39.57-2.49.03Z"/>
  <path d="M166.37,19.7h-2.88v-9.72c0-1.33-1.75-2.31-2.99-2.29-1.32.02-3.49,1.36-3.49,2.77v9.24h-2.88V5.78h2.64s0,1.92,0,1.92c2.18-3.23,7.96-3.32,9.24.72.06.19.36,1.48.36,1.56v9.72Z"/>
  <rect x="119.09" y=".49" width="2.89" height="19.21"/>
  <rect x="169.01" y="5.78" width="2.88" height="13.92"/>
  <rect x="169.01" y=".49" width="2.89" height="2.89"/>
  <path class="cls-1" d="M46.55,2.71c10.62-1.79,10.24,16.48.24,14.77-6.79-1.16-6.57-13.7-.24-14.77Z"/>
  <path class="cls-1" d="M195.11,7.75c5.91-.96,5.95,8.84,1.61,9.53-5.92.94-6.14-8.79-1.61-9.53Z"/>
  <polygon class="cls-1" points="95.09 12.02 88.85 12.02 91.85 3.61 95.09 12.02"/>
  <path class="cls-1" d="M109.19,7.75c6.07-.99,6.5,9.73,1.08,9.96s-5.73-9.2-1.08-9.96Z"/>
  <path class="cls-1" d="M133.49,12.74c.09,2.11.05,4.11-2.26,4.81-1.88.58-4.57.27-4.2-2.28.33-2.24,4.78-1.89,6.47-2.54Z"/>
</svg>