<?xml version="1.0" encoding="utf-8"?>
<!-- Generator: Adobe Illustrator 27.9.0, SVG Export Plug-In . SVG Version: 6.00 Build 0)  -->
<svg version="1.1" xmlns="http://www.w3.org/2000/svg" xmlns:xlink="http://www.w3.org/1999/xlink" x="0px" y="0px"
	 viewBox="0 0 1366 768" style="enable-background:new 0 0 1366 768;" xml:space="preserve">
<style type="text/css">
	.st0{fill:#00002D;}
</style>
<g id="图层_1">
	<g>
		<path class="st0" d="M987.86,720.21c-4.71-7.86-11-14.78-18.45-20.1c-12.31-8.79-27.31-13.23-39.58-22.07
			c-12.96-9.34-22.34-23.52-25.86-39.1c-2.22-9.82-2.17-20.02-3.95-29.93c-1.78-9.91-5.83-20.06-14.07-25.85
			c-10.03-7.05-25.31-7.15-31.48-17.74c-3.94-6.77-2.4-15.35,0.17-22.74c4.45-12.8,11.66-24.64,21.01-34.45
			c9.61-10.09,21.68-18.42,27.68-31c4.98-10.46,5.07-22.46,6.38-33.97c5.07-44.57,30.87-86.35,68.44-110.85
			c-32.07-1.66-64.21-1.88-96.29-0.66c-3.74,0.14-7.7,0.37-10.81,2.45c-3.25,2.17-4.99,5.93-6.57,9.51
			c-20.13,45.57-40.26,91.14-60.38,136.72c-11.78-45.43-1.21-93.48-4.59-140.3c-0.18-2.53-0.54-5.33-2.47-6.98
			c-1.74-1.49-4.23-1.59-6.52-1.62c-24.85-0.28-49.7-0.57-74.54-0.85c-6.04-0.07-12.41-0.05-18.15,2.08
			c-1.82,0.67-3.21,1.37-4.29,2.14c-3.6,2.59-3.57,5.99-3.58,11.96c-0.02,15.73-0.03,31.47-0.04,47.2
			c-0.05,56.19-0.11,112.39-0.16,168.58c-0.05,55.91-0.16,111.82-0.16,167.74c0,5.06-0.02,16.88,3.67,20.35
			c3.44,3.24,10.51,3.84,15.23,3.81c30.94-0.18,60.46,0.18,91.41,0c0.46-54.41,0.75-115.97,1.21-170.39
			c8.28,2.25,12.53,11.2,15.72,19.17c8.83,22.05,17.66,44.09,26.5,66.14c0.62,1.54,1.23,3.07,1.86,4.61c0.33,0.81,0.66,1.63,1,2.44
			c10.3,25.2,27.44,78.02,56.55,78.02h95.22C998.97,746.35,991.96,727.05,987.86,720.21z"/>
		<path class="st0" d="M676.84,394.47c-0.02-15.73-0.03-31.47-0.04-47.2c-0.01-5.97,0.02-9.37-3.58-11.96
			c-1.07-0.77-2.47-1.47-4.29-2.14c-5.74-2.13-12.11-2.15-18.15-2.08c-24.85,0.28-49.7,0.57-74.54,0.85
			c-2.29,0.03-4.78,0.13-6.52,1.62c-1.93,1.65-2.28,4.45-2.47,6.98c-3.38,46.81,7.19,94.86-4.59,140.3
			c-20.13-45.57-40.26-91.14-60.38-136.72c-1.58-3.57-3.32-7.34-6.57-9.51c-3.12-2.08-7.07-2.3-10.81-2.45
			c-32.09-1.22-64.23-1-96.29,0.66c37.57,24.5,63.37,66.28,68.44,110.85c1.31,11.51,1.4,23.51,6.38,33.97
			c5.99,12.58,18.07,20.91,27.68,31c9.35,9.82,16.56,21.65,21.01,34.45c2.57,7.4,4.11,15.98,0.17,22.74
			c-6.17,10.59-21.45,10.69-31.48,17.74c-8.24,5.79-12.29,15.94-14.07,25.85c-1.78,9.91-1.73,20.11-3.95,29.93
			c-3.52,15.58-12.9,29.76-25.86,39.1c-12.27,8.84-27.27,13.28-39.58,22.07c-7.46,5.33-13.75,12.25-18.45,20.1
			c-4.1,6.84-11.11,26.14-10.09,34.31h95.22c29.12,0,46.26-52.82,56.55-78.02c0.33-0.81,0.66-1.63,1-2.44
			c0.62-1.53,1.24-3.07,1.86-4.61c8.83-22.05,17.66-44.09,26.5-66.14c3.19-7.97,7.44-16.92,15.72-19.17
			c0.46,54.41,0.75,115.97,1.21,170.38c30.94,0.18,60.46-0.18,91.41,0c4.72,0.03,11.8-0.57,15.23-3.81
			c3.68-3.47,3.67-15.29,3.67-20.35c0-55.91-0.11-111.82-0.16-167.74C676.95,506.86,676.89,450.66,676.84,394.47z"/>
		<path class="st0" d="M911.91,309.37c16.22,0.3,20.9-5.48,20.68-20.75c-0.14-9.71,2.09-20.16,6-29.08
			c12.54-28.63,6.57-57.94-15.7-80.01c-7.35-7.28-12.48-17.57-16.36-27.39c-5.4-13.67-18.95-17.5-30.16-7.05
			c-17.47,16.3-25.48,15.79-38.21-3.71c-10.04-15.38-28.46-24.73-31.48-45.67c-0.48-3.36-12.62-7.25-19.26-7.06
			c-14.54,0.43-28.99,3.47-43.51,5.14c-8.17,0.94-16.49,0.73-24.6,1.98c-24.81,3.81-25.98,2.84-24.4-25.35
			c10.97-0.65,22.15-1.32,35.27-2.1c0.5-8.24,0.97-16.03,1.57-26.03c-12.86,1.53-23.69,2.82-34.9,4.15
			c-5.64-12.2,7.86-34.31-15.03-34.44c-22.89,0.13-9.39,22.25-15.03,34.44c-11.21-1.33-22.04-2.62-34.9-4.15
			c0.6,10,1.07,17.79,1.57,26.03c13.13,0.78,24.3,1.45,35.27,2.1c1.58,28.18,0.41,29.16-24.4,25.35c-8.11-1.25-16.43-1.04-24.6-1.98
			c-14.52-1.67-28.97-4.71-43.51-5.14c-6.64-0.19-18.77,3.7-19.26,7.06c-3.02,20.95-21.43,30.3-31.48,45.67
			c-12.73,19.5-20.74,20.01-38.21,3.71c-11.21-10.46-24.76-6.62-30.16,7.05c-3.88,9.81-9.01,20.11-16.36,27.39
			c-22.27,22.07-28.24,51.38-15.7,80.01c3.91,8.92,6.14,19.37,6,29.08c-0.22,15.27,4.47,21.05,20.68,20.75
			c54.52-1.02,109.07-0.55,163.61-0.66c22.15-0.04,44.31-0.11,66.46-0.17c22.15,0.06,44.31,0.12,66.46,0.17
			C802.84,308.82,857.39,308.35,911.91,309.37z"/>
	</g>
</g>
<g id="图层_2">
</g>
<g id="图层_3">
</g>
<g id="图层_4">
</g>
</svg>
