<svg xmlns="http://www.w3.org/2000/svg" width="1200" height="900" viewBox="0 0 1200 900">
  <defs>
    <linearGradient id="bg" x1="0" y1="0" x2="1" y2="1">
      <stop offset="0" stop-color="#233A5C"/>
      <stop offset="1" stop-color="#3A5B8C"/>
    </linearGradient>
    <linearGradient id="accent" x1="0" y1="0" x2="0" y2="1">
      <stop offset="0" stop-color="#A68B5B"/>
      <stop offset="1" stop-color="#876D3F"/>
    </linearGradient>
  </defs>
  <rect x="0" y="0" width="1200" height="900" fill="url(#bg)"/>
  <rect x="0" y="0" width="520" height="900" fill="#1c2e4a" opacity="0.4"/>
  <rect x="520" y="0" width="680" height="900" fill="#233A5C" opacity="0.25"/>
  <g transform="translate(140,120)">
    <circle cx="200" cy="200" r="160" fill="#2b4976"/>
    <g transform="translate(200,160)">
      <path d="M-120,0 h240 l-18,-40 c-6,-14 -20,-24 -36,-24 h-112 c-16,0 -30,10 -36,24 z" fill="#ffc94a"/>
      <rect x="-110" y="0" width="220" height="140" rx="28" fill="#f2f4f8"/>
      <rect x="-95" y="20" width="190" height="60" rx="12" fill="#e6eaef"/>
      <circle cx="-30" cy="55" r="22" fill="#cdd3db"/>
      <circle cx="30" cy="55" r="22" fill="#cdd3db"/>
      <rect x="-80" y="95" width="160" height="30" rx="8" fill="#d7dde6"/>
    </g>
    <rect x="40" y="380" width="320" height="220" rx="24" fill="#2b4976"/>
    <rect x="60" y="400" width="280" height="28" rx="8" fill="#A68B5B"/>
    <rect x="60" y="442" width="260" height="18" rx="6" fill="#c9b089"/>
    <rect x="60" y="470" width="260" height="18" rx="6" fill="#c9b089" opacity="0.8"/>
    <rect x="60" y="498" width="220" height="18" rx="6" fill="#c9b089" opacity="0.7"/>
  </g>
  <g transform="translate(640,160)">
    <rect x="0" y="0" width="460" height="520" rx="20" fill="#ffffff" opacity="0.08"/>
    <rect x="24" y="24" width="412" height="80" rx="12" fill="#ffffff" opacity="0.12"/>
    <rect x="24" y="124" width="372" height="22" rx="8" fill="#ffffff" opacity="0.12"/>
    <rect x="24" y="156" width="372" height="22" rx="8" fill="#ffffff" opacity="0.10"/>
    <rect x="24" y="188" width="332" height="22" rx="8" fill="#ffffff" opacity="0.10"/>
    <rect x="24" y="220" width="332" height="22" rx="8" fill="#ffffff" opacity="0.08"/>
  </g>
  <text x="100" y="820" fill="#ffffff" opacity="0.55" font-size="28" font-family="'Noto Sans JP', 'Segoe UI', Arial">架空の代表イメージ / Katayama Construction</text>
  <g transform="translate(60,60) rotate(-90)">
    <text x="0" y="0" fill="url(#accent)" font-size="120" font-weight="700" opacity="0.22" font-family="'Noto Sans JP','Segoe UI',Arial">建設</text>
  </g>
</svg>