<?xml version="1.0" encoding="UTF-8"?>
<svg id="_图层_1" data-name="图层_1" xmlns="http://www.w3.org/2000/svg" version="1.1" viewBox="0 0 841.89 595.28">
  <!-- Generator: Adobe Illustrator 29.3.1, SVG Export Plug-In . SVG Version: 2.1.0 Build 151)  -->
  <defs>
    <style>
      .st0 {
        fill: #2ea7e0;
      }

      .st1 {
        fill: #f39800;
      }
    </style>
  </defs>
  <path class="st1" d="M373.97,204.4s-182.78-133.98-307.25,62.32c0,0,63.68-38.75,86.84-38.75,0,0-62.86,150.94,7.86,171.2,0,0-46.31-242.32,212.55-194.77Z"/>
  <path class="st0" d="M394.25,238.99s-152.34-38.86-192.5,14.85c0,0-83.32,107.55,83.33,120.79,0,0-123.6-38.21-52.22-105.23,0,0,46.61-49.11,161.39-30.4Z"/>
  <path class="st0" d="M274.92,291.27c0,.73-.26,1.09-.77,1.09-.89,0-4.4-.27-10.53-.82-.14,9.18-.21,15.59-.21,19.21,0,4.28.11,10.72.33,19.32.22,8.6.33,15.04.33,19.32,0,.69-.1,1.13-.31,1.31-.07.07-.4.16-.98.27-1.4.29-3.45.43-6.16.43-3.01,0-5.12-.15-6.33-.43-.65-.18-.98-.74-.98-1.69,0-4.28.12-10.71.35-19.27.23-8.56.35-14.98.35-19.27,0-2.83-.09-9.14-.28-18.94-4.66.73-8.39,1.08-11.16,1.08-.37,0-.56-.18-.56-.54,0-.48.16-1.87.49-4.19.37-2.54.58-4.09.63-4.63.07-1.71.15-3.42.24-5.12.16-2.72.44-4.09.84-4.09.05,0,.21.02.49.06,3.78.76,9.37,1.14,16.76,1.14,2.1,0,5.97-.34,11.62-1.03,3.03-.36,4.56-.55,4.58-.55.47,0,.73.04.8.13s.12.45.14,1.06c0,.98-.02,2.34-.07,4.08-.05,1.92-.07,3.29-.07,4.09,0,.9.08,2.24.23,4,.15,1.76.23,3.08.23,3.95Z"/>
  <path class="st0" d="M301.62,317.07c0,1.42-.5,2.13-1.5,2.13-.44,0-1.09-.05-1.94-.14s-1.49-.13-1.91-.13c-1.94,0-3.25.47-3.95,1.41s-1.05,2.85-1.05,5.72c0,1.56.02,3.93.05,7.1.03,3.17.05,5.54.05,7.1,0,1.05.05,2.62.14,4.7.09,2.09.14,3.64.14,4.65,0,.87-.38,1.36-1.15,1.47-1.12.15-2.83.22-5.14.22s-3.99-.1-5.32-.32c-.77-.15-1.15-.74-1.15-1.8,0-2.9.01-7.25.03-13.04s.03-10.13.03-13.03c0-8.53-.5-15.55-1.5-21.06-.05-.33-.07-.6-.07-.82,0-.54.17-.9.52-1.08,1.28-.22,3.16-.62,5.63-1.2,3.68-1.13,5.59-1.69,5.7-1.69.42,0,.69,1.14.8,3.43.12,2.28.33,3.42.63,3.42-.33,0,.63-.95,2.87-2.86s4.4-2.86,6.47-2.86c1.31,0,1.96.43,1.96,1.31,0,1.05-.07,2.53-.21,4.46-.14,2.07-.22,3.56-.24,4.46,0,1.05.01,2.45.03,4.19.05,2.14.07,3.56.07,4.24Z"/>
  <path class="st0" d="M337.76,321.43c0,3.66-.76,5.75-2.27,6.26-.26.08-2.67.47-7.24,1.2-2.75.48-6.86,1.04-12.32,1.69.33,2.36,1.32,4.16,2.97,5.39,1.35,1.01,2.89,1.53,4.62,1.53,2.08,0,4.16-.87,6.26-2.61.89-.87,1.77-1.74,2.66-2.62.49.36,1.31,2.22,2.47,5.56s1.73,5.46,1.73,6.37c0,.25-.17.67-.52,1.25-2.84,4.76-7.27,7.13-13.26,7.13-5.55,0-10.03-2.52-13.44-7.57-3.5-5.12-5.25-11.95-5.25-20.52s1.56-15.19,4.69-20.52c3.22-5.51,7.49-8.27,12.81-8.27,4.48,0,8.28,2.54,11.41,7.62,3.12,5.08,4.69,11.12,4.69,18.13ZM325.52,318.1c0-2.25-.51-4.23-1.54-5.93-1.03-1.71-2.25-2.56-3.67-2.56s-2.68.96-3.64,2.88c-.89,1.78-1.33,3.86-1.33,6.26,0,.98.33,1.47.98,1.47,1.73,0,4.41-.42,8.05-1.25.77-.18,1.15-.48,1.15-.87Z"/>
  <path class="st0" d="M376.39,349.4c0,.98-.33,1.55-.98,1.69-.65.15-2.35.22-5.11.22-2.94,0-4.76-.1-5.46-.32s-1.05-.97-1.05-2.23c0-1.71.03-4.28.1-7.73.07-3.44.1-6.04.1-7.78,0-1.34-.02-3.35-.07-6.01s-.07-4.67-.07-6.01c0-4.98-1.39-7.46-4.16-7.46-.91,0-1.97.62-3.18,1.85-1.31,1.39-1.96,2.74-1.96,4.09v29.39c0,1.2-.36,1.87-1.08,2.01-.82.15-2.48.22-5,.22-2.73,0-4.5-.1-5.32-.32-.72-.18-1.08-.78-1.08-1.8,0-2.83.01-7.1.03-12.79s.03-9.97.03-12.84c0-9.03-.45-16.13-1.36-21.28-.05-.33-.07-.6-.07-.82,0-.57.17-.98.52-1.2,1.47-.25,3.43-.65,5.88-1.2,3.71-1.12,5.8-1.69,6.26-1.69.26,0,.45,1.22.59,3.67s.34,3.67.59,3.67c-.26,0,1-1.26,3.76-3.79,2.76-2.52,5.19-3.78,7.26-3.78,2.96,0,5.43,1.09,7.42,3.27,2.21,2.5,3.32,5.98,3.32,10.45v17.36c0,2.36.01,5.89.03,10.59.02,4.7.03,8.22.03,10.58Z"/>
  <path class="st0" d="M419.33,273.75c0-.8-.09.4-.28,3.59-.26,4.03-.45,9.18-.59,15.46-.19,7.11-.28,15.2-.28,24.27,0,14.99.27,25.66.8,32.01.05.69.07,1.12.07,1.3,0,.4-.17.64-.52.71-.84.18-3.93.27-9.27.27-1.26,0-1.98-.38-2.17-1.14-.05-1.38-.09-2.76-.14-4.14-.02-.29-.12-.58-.28-.87-.14.11-.31.33-.52.66-2.52,3.84-5.67,5.77-9.45,5.77-4.92,0-8.86-2.69-11.83-8.06-2.82-5.12-4.23-11.58-4.23-19.38s1.39-14.42,4.16-19.54c2.94-5.44,6.9-8.16,11.9-8.16,3.52,0,6.26,1.74,8.22,5.22.33.58.56.87.7.87.21,0,.31-.48.31-1.42,0-2.79-.05-6.96-.14-12.51-.09-5.56-.14-9.71-.14-12.46,0-1.06.19-1.65.56-1.8,1.49-.11,3.54-.33,6.16-.65,4.66-.91,6.73-1.36,6.19-1.36.51,0,.77.45.77,1.36ZM406.14,323.77c0-2.86-.64-5.38-1.92-7.54-1.28-2.16-2.83-3.24-4.65-3.24-1.91,0-3.44,1.08-4.57,3.24s-1.7,4.74-1.7,7.75.57,5.42,1.71,7.46c1.17,2.18,2.68,3.26,4.55,3.26s3.43-1.08,4.69-3.26,1.89-4.74,1.89-7.68Z"/>
  <path class="st0" d="M483.54,338.68c0,.58-.24,1.34-.73,2.29-4.29,7.94-9.99,11.92-17.11,11.92s-13.18-3.86-17.71-11.6c-4.41-7.47-6.61-16.91-6.61-28.3s2.16-20.39,6.47-28.08c4.51-8.06,10.23-12.08,17.18-12.08,7.56,0,13.49,3.6,17.78,10.83.47.8.7,1.5.7,2.13,0,.69-.81,3.25-2.43,7.67-1.62,4.43-2.65,6.91-3.07,7.46-.18.29-.42.43-.7.43-.11,0-.7-.73-1.75-2.18-1.26-1.74-2.49-3.11-3.71-4.09-1.84-1.45-3.75-2.18-5.74-2.18-3.43,0-6.17,2-8.22,5.99-1.89,3.7-2.83,8.27-2.83,13.72s.94,10.14,2.83,13.88c2.06,4.07,4.79,6.1,8.22,6.1,2.03,0,3.95-.69,5.77-2.07,1.19-.9,2.41-2.18,3.64-3.81,1.03-1.38,1.6-2.06,1.71-2.06.24,0,.47.2.7.59.38.65,1.39,2.92,3.04,6.8,1.71,4.03,2.55,6.24,2.55,6.64Z"/>
  <path class="st0" d="M520.74,324.2c0,8.27-1.62,14.99-4.88,20.14-3.25,5.15-7.53,7.73-12.83,7.73s-9.35-2.54-12.67-7.62c-3.31-5.07-4.97-11.61-4.97-19.59,0-8.42,1.59-15.25,4.76-20.5,3.18-5.24,7.47-7.86,12.88-7.86s9.55,2.57,12.81,7.7c3.27,5.14,4.9,11.81,4.9,20ZM509.26,324.2c0-2.86-.57-5.4-1.71-7.59-1.14-2.19-2.62-3.29-4.44-3.29s-3.36,1.13-4.55,3.37c-1.12,2.11-1.68,4.61-1.68,7.51s.56,5.47,1.68,7.57c1.19,2.25,2.71,3.38,4.55,3.38s3.32-1.13,4.51-3.38c1.1-2.1,1.64-4.63,1.64-7.57Z"/>
  <path class="st0" d="M580.89,348.97c0,1.27-.35,1.98-1.05,2.12-.7.15-2.42.22-5.18.22s-4.62-.1-5.32-.32-1.05-1.11-1.05-2.67c0-1.67.03-4.16.1-7.49.07-3.32.1-5.82.1-7.48,0-6.35-.04-10.87-.14-13.56-.14-4.32-1.46-6.47-3.95-6.47-1.09,0-2.18.71-3.27,2.15-1.08,1.43-1.69,3.02-1.81,4.77-.09,1.52-.14,5.98-.14,13.39,0,1.71.03,4.29.1,7.75s.1,6.07.1,7.81c0,1.2-.34,1.8-1.01,1.8h-10.6c-.65,0-.98-.74-.98-2.23,0-1.71.03-4.26.1-7.68.07-3.41.1-5.98.1-7.73,0-1.34-.02-3.37-.07-6.1-.04-2.72-.07-4.77-.07-6.15,0-5.19-1.27-7.78-3.81-7.78-1.02,0-2.13.62-3.32,1.85-1.3,1.34-1.96,2.76-1.96,4.25,0,3.3.01,8.24.03,14.8.03,6.57.03,11.48.03,14.75,0,.91-.07,1.47-.21,1.69s-.5.36-1.08.43c-1.05.15-2.7.22-4.97.22-1.47,0-3.14-.1-5-.32-.56-.08-.89-.2-.99-.38s-.16-.72-.16-1.63c0-2.9.01-7.25.03-13.04.03-5.79.03-10.13.03-13.03,0-5.96-.28-12.65-.84-20.09-.04-.43-.07-.76-.07-.98,0-.62.17-1.04.49-1.25.52-.33,1.48-.6,2.9-.82,1.75-.25,2.79-.41,3.11-.49.24-.07,1.15-.45,2.76-1.14,1.15-.51,2.06-.76,2.76-.76.45,0,.68,1.26.7,3.79.03,2.52.12,3.78.28,3.78.24-.15.5-.4.8-.76,2.1-2.54,3.76-4.28,4.97-5.22,1.8-1.34,3.74-2.02,5.84-2.02s4.06.74,5.74,2.23c1.89,1.67,3.11,4.01,3.67,7.02,1.24-2.61,2.94-4.81,5.11-6.59s4.28-2.67,6.33-2.67c3.08,0,5.59,1.11,7.52,3.32,2.2,2.51,3.29,6.08,3.29,10.72,0,1.92-.03,4.82-.1,8.68-.07,3.86-.1,6.76-.1,8.68,0,2.29.03,5.72.1,10.32.07,4.59.1,8.03.1,10.32Z"/>
  <path class="st0" d="M626.13,324.8c0,7.76-1.47,14.21-4.41,19.32-3.03,5.3-7.01,7.94-11.93,7.94-1.79,0-3.72-.69-5.77-2.06-2.05-1.38-2.98-2.07-2.8-2.07-.3,0-.45.55-.45,1.64,0,1.85.06,4.63.17,8.35.12,3.72.17,6.51.17,8.36,0,1.16-.38,1.74-1.15,1.74l-7.14.06c-1.61,0-2.65-.09-3.11-.27-.7-.25-1.05-.92-1.05-2.02l.07-41.91c0-8.45-.41-15.59-1.22-21.39-.04-.36-.07-.67-.07-.92,0-.55.14-.91.42-1.09.91-.54,2.65-1.12,5.21-1.74,2.5-.62,4.3-.93,5.42-.93.91,0,1.43.94,1.56,2.81.13,1.87.29,2.8.47,2.8-.23,0,.76-.99,3-2.96,2.23-1.98,4.25-2.97,6.07-2.97,5.07,0,9.11,2.59,12.14,7.78,2.94,5,4.41,11.52,4.41,19.54ZM613.15,324.69c0-2.9-.57-5.44-1.71-7.62-1.23-2.28-2.76-3.42-4.58-3.42s-3.36,1.14-4.48,3.42c-.98,2.07-1.47,4.61-1.47,7.62s.52,5.65,1.54,7.68c1.1,2.21,2.62,3.32,4.55,3.32,4.11,0,6.16-3.66,6.16-10.99Z"/>
  <path class="st0" d="M665.85,323.77c0,2.79.1,6.95.31,12.46s.31,9.65.31,12.41c0,1.46-.41,2.23-1.22,2.34-2.89.32-6.2.49-9.94.49-.44,0-.74-1.04-.89-3.13-.15-2.09-.34-3.15-.55-3.18-.18.14-.43.45-.73.92-2.61,4.1-5.41,6.15-8.4,6.15-4.55,0-8.31-2.8-11.3-8.38-2.82-5.23-4.23-11.46-4.23-18.72,0-8.38,1.46-15.14,4.37-20.25,3.04-5.3,7.19-7.94,12.46-7.94,3.67,0,6.56,1.99,8.68,5.98.1.18.17.27.24.27.21,0,.45-.87.72-2.64.27-1.76.59-2.64.96-2.64.87,0,2.51.38,4.93,1.14,2.31.73,3.97,1.34,4.97,1.85.35.22.52.5.52.87,0,.15-.03.52-.1,1.14-.74,6.57-1.12,13.52-1.12,20.85ZM654.58,324.1c0-3.09-.62-5.63-1.87-7.65-1.25-2.02-2.88-3.02-4.88-3.02s-3.63,1-4.86,3c-1.23,1.99-1.85,4.56-1.85,7.68,0,2.94.66,5.46,1.96,7.57,1.31,2.11,2.9,3.16,4.76,3.16,1.99,0,3.6-1.01,4.86-3.02,1.26-2.02,1.89-4.58,1.89-7.7Z"/>
  <path class="st0" d="M707.59,349.4c0,.98-.32,1.55-.98,1.69-.65.15-2.35.22-5.11.22-2.94,0-4.76-.1-5.46-.32s-1.05-.97-1.05-2.23c0-1.71.03-4.28.1-7.73.07-3.44.1-6.04.1-7.78,0-1.34-.02-3.35-.07-6.01-.04-2.67-.07-4.67-.07-6.01,0-4.98-1.39-7.46-4.16-7.46-.91,0-1.97.62-3.18,1.85-1.3,1.39-1.96,2.74-1.96,4.09v29.39c0,1.2-.36,1.87-1.08,2.01-.81.15-2.48.22-5,.22-2.73,0-4.5-.1-5.32-.32-.72-.18-1.08-.78-1.08-1.8,0-2.83.01-7.1.03-12.79.03-5.7.03-9.97.03-12.84,0-9.03-.45-16.13-1.36-21.28-.04-.33-.07-.6-.07-.82,0-.57.17-.98.52-1.2,1.47-.25,3.43-.65,5.88-1.2,3.71-1.12,5.8-1.69,6.26-1.69.26,0,.45,1.22.59,3.67.14,2.45.34,3.67.59,3.67-.25,0,1-1.26,3.77-3.79,2.76-2.52,5.19-3.78,7.26-3.78,2.97,0,5.44,1.09,7.42,3.27,2.22,2.5,3.32,5.98,3.32,10.45v17.36c0,2.36.01,5.89.03,10.59.03,4.7.03,8.22.03,10.58Z"/>
  <path class="st0" d="M747.8,312.18c0,7.03-.14,11.32-.42,12.84-.35,1.81-2.9,8.38-7.66,19.7-.74,1.78-2.67,5.9-5.77,12.36-3.43,7.11-5.37,10.87-5.84,11.27-.56.54-4.14.81-10.74.81-1,0-1.68-.18-2.03-.54-.3-1.49-.69-3.25-1.15-5.28-.37-1.27-.74-2.55-1.12-3.86-.53-1.89-.8-3.14-.8-3.76,0-.69.2-1.03.59-1.03,6.49,0,9.73-2.31,9.73-6.91,0-.4-1.58-4.01-4.76-10.83-3.29-7-5.09-11.43-5.42-13.28-.18-1.06-.28-4.81-.28-11.27,0-1.31.03-3.28.07-5.91.05-2.63.07-4.6.07-5.91,0-.94.38-1.41,1.15-1.41,1.19,0,3,.06,5.41.16,2.41.11,4.21.16,5.4.16.49,0,.73.57.73,1.69,0,1.02-.03,2.55-.1,4.6s-.1,3.58-.1,4.6c0,4.57.05,7.67.14,9.31.07,1.27.77,3.63,2.1,7.08,1.4,3.59,2.41,5.39,3.04,5.39.54,0,1.45-1.78,2.73-5.33,1.19-3.38,1.83-5.65,1.92-6.81.24-3.19.35-6.66.35-10.39,0-.98-.06-2.47-.17-4.46-.11-1.99-.17-3.5-.17-4.51,0-.69.24-1.04.73-1.04,1.19,0,2.97-.07,5.34-.22,2.37-.15,4.14-.22,5.33-.22.61,0,1.01.47,1.22,1.41.33,1.67.49,5.54.49,11.6Z"/>
</svg>